# xmcd
#
# Track frame offsets:
#	150
#	15105
#	28860
#	42570
#	56190
#	69712
#	82402
#	95204
#	105344
#	118446
#	134631
#	149691
#	165486
#	183906
#	199851
#	214633
#	229880
#	243087
#
# Disc length: 3412 seconds
#
# Revision: 0
# Processed by: cddbd v1.5.2PL0 Copyright (c) Steve Scherf et al.
# Submitted via: SynApp - FreeCDDB Version: 2.5
#
DISCID=120d5212
DTITLE=Trio Azteca - Folk Songs from Mexico
DYEAR=2008
DGENRE=A capella
TTITLE0=Caminos de michoacán 3-16
TTITLE1=La barca 3-00
TTITLE2=Capullito del alelí 3-00
TTITLE3=La casa en el aire 2-59
TTITLE4=El gusto 2-57
TTITLE5=Mi ranchito 2-46
TTITLE6=Mujeres divinas 2-48
TTITLE7=Yo no me caso compadre 2-12
TTITLE8=Moliendo Café 2-52
TTITLE9=José Alfredo Jiménez poppurrí 3-33
TTITLE10=Piel canela 3-18
TTITLE11=Quizás quizás 3-28
TTITLE12=El polvorete 4-03
TTITLE13=Ahora seremos felices 3-30
TTITLE14=Tristes recuerdos 3-14
TTITLE15=El gavilan pollero 3-20
TTITLE16=De que manera te olvido 2-53
TTITLE17=El balaje 2-49
EXTD=KTINRS
EXTT0=
EXTT1=
EXTT2=
EXTT3=
EXTT4=
EXTT5=
EXTT6=
EXTT7=
EXTT8=
EXTT9=
EXTT10=
EXTT11=
EXTT12=
EXTT13=
EXTT14=
EXTT15=
EXTT16=
EXTT17=
PLAYORDER=
